<?xml version="1.0" encoding="UTF-8"?>
<svg width="554px" height="886px" viewBox="0 0 554 886" version="1.1" xmlns="http://www.w3.org/2000/svg" xmlns:xlink="http://www.w3.org/1999/xlink">
    <title>glowmarkt_icon</title>
    <g id="glowmarkt_icon" stroke="none" stroke-width="1" fill="none" fill-rule="evenodd">
        <g id="Page-1" transform="translate(0.000000, 1.000000)">
            <path d="M498.416716,0.101685358 C467.906714,0.101685358 443.171295,24.8646934 443.148081,55.4184698 C453.512263,63.2376677 463.408862,71.8241702 472.746132,81.1768699 C524.940664,133.457653 553.686455,202.970124 553.686455,276.907052 L553.686455,55.4627586 C553.686455,24.8879451 528.941087,0.101685358 498.416716,0.101685358" id="Fill-20" fill="#F6658E"></path>
            <path d="M443.146976,498.396187 L443.146976,609.12387 C443.146976,578.549056 467.892344,553.762797 498.416716,553.762797 C528.941087,553.762797 553.686455,578.549056 553.686455,609.12387 L553.686455,276.906498 C553.686455,350.844533 524.940664,420.355897 472.746132,472.637787 C463.408862,481.990487 453.512263,490.576989 443.146976,498.396187" id="Fill-22" fill="#FFBA3D"></path>
            <path d="M56.2587979,221.545978 C86.7831697,221.545978 111.528538,246.332238 111.528538,276.907052 C111.528538,185.328764 185.910553,110.823832 277.337757,110.823832 C368.76496,110.823832 443.146976,185.328764 443.146976,276.907052 L443.146976,55.4627586 C443.146976,55.4483647 443.148081,55.4339709 443.148081,55.4184698 C395.571889,19.5289932 337.948764,0.101685358 277.337757,0.101685358 C203.522809,0.101685358 134.125018,28.8949796 81.9304866,81.1768699 C29.7348498,133.457653 0.989058155,202.970124 0.989058155,276.907052 C0.989058155,246.332238 25.734426,221.545978 56.2587979,221.545978" id="Fill-24" fill="#FFB847"></path>
            <path d="M443.148081,55.4190234 C443.148081,55.4334172 443.146976,55.4478111 443.146976,55.4633122 L443.146976,276.907605 C443.146976,246.331684 467.892344,221.546532 498.416716,221.546532 C528.941087,221.546532 553.686455,246.331684 553.686455,276.907605 C553.686455,202.96957 524.940664,133.458207 472.746132,81.1763163 C463.408862,71.8236166 453.512263,63.2382214 443.148081,55.4190234" id="Fill-26" fill="#F64928"></path>
            <path d="M277.337757,442.990271 C185.910553,442.990271 111.528538,368.485339 111.528538,276.907052 C111.528538,307.481865 86.7831697,332.268125 56.2587979,332.268125 C25.734426,332.268125 0.989058155,307.481865 0.989058155,276.907052 C0.989058155,350.843979 29.7348498,420.35645 81.9304866,472.637233 C134.125018,524.919124 203.522809,553.712418 277.337757,553.712418 C337.948764,553.712418 395.570784,534.28511 443.146976,498.396741 L443.146976,276.907052 C443.146976,368.485339 368.76496,442.990271 277.337757,442.990271" id="Fill-28" fill="#F6658E"></path>
            <path d="M498.416716,332.268125 C467.892344,332.268125 443.146976,307.481865 443.146976,276.907052 L443.146976,498.396741 C453.512263,490.577543 463.408862,481.99104 472.746132,472.637233 C524.940664,420.35645 553.686455,350.843979 553.686455,276.907052 C553.686455,307.481865 528.941087,332.268125 498.416716,332.268125" id="Fill-30" fill="#F64928"></path>
            <path d="M56.2587979,332.268125 C86.7831697,332.268125 111.528538,307.481865 111.528538,276.907052 C111.528538,246.332238 86.7831697,221.545978 56.2587979,221.545978 C25.734426,221.545978 0.989058155,246.332238 0.989058155,276.907052 C0.989058155,307.481865 25.734426,332.268125 56.2587979,332.268125" id="Fill-32" fill="#E32B4D"></path>
            <path d="M498.416716,221.545978 C467.892344,221.545978 443.146976,246.332238 443.146976,276.907052 C443.146976,307.481865 467.892344,332.268125 498.416716,332.268125 C528.941087,332.268125 553.686455,307.481865 553.686455,276.907052 C553.686455,246.332238 528.941087,221.545978 498.416716,221.545978" id="Fill-34" fill="#E32B4D"></path>
            <path d="M222.068017,830.568606 C222.068017,799.993792 246.813385,775.207532 277.337757,775.207532 C185.910553,775.207532 111.528538,700.7026 111.528538,609.124313 C111.528538,578.549499 86.7831697,553.763239 56.2587979,553.763239 C25.734426,553.763239 0.989058155,578.549499 0.989058155,609.124313 C0.989058155,683.06124 29.7337444,752.573711 81.9293812,804.854494 C134.125018,857.136385 203.522809,885.929679 277.337757,885.929679 C246.813385,885.929679 222.068017,861.143419 222.068017,830.568606" id="Fill-36" fill="#FFB847"></path>
            <path d="M498.416716,664.485386 C467.892344,664.485386 443.146976,639.699126 443.146976,609.124313 C443.146976,700.7026 368.76496,775.207532 277.337757,775.207532 C307.862129,775.207532 332.607496,799.993792 332.607496,830.568606 C332.607496,861.143419 307.862129,885.929679 277.337757,885.929679 C351.152705,885.929679 420.550496,857.136385 472.746132,804.854494 C524.941769,752.573711 553.686455,683.06124 553.686455,609.124313 C553.686455,639.699126 528.941087,664.485386 498.416716,664.485386" id="Fill-38" fill="#F6658E"></path>
            <path d="M498.416716,553.763239 C467.892344,553.763239 443.146976,578.549499 443.146976,609.124313 C443.146976,639.699126 467.892344,664.485386 498.416716,664.485386 C528.941087,664.485386 553.686455,639.699126 553.686455,609.124313 C553.686455,578.549499 528.941087,553.763239 498.416716,553.763239" id="Fill-40" fill="#E32B4D"></path>
            <path d="M332.607496,830.568606 C332.607496,799.993792 307.862129,775.207532 277.337757,775.207532 C246.813385,775.207532 222.068017,799.993792 222.068017,830.568606 C222.068017,861.143419 246.813385,885.929679 277.337757,885.929679 C307.862129,885.929679 332.607496,861.143419 332.607496,830.568606" id="Fill-42" fill="#E32B4D"></path>
        </g>
    </g>
</svg>